<mxfile host="app.diagrams.net" modified="2020-05-10T15:38:12.133Z" agent="5.0 (Windows NT 10.0; Win64; x64) AppleWebKit/537.36 (KHTML, like Gecko) Chrome/81.0.4044.138 Safari/537.36" etag="8UkHqq-oguIrwul66wGN" version="13.0.9" type="github">
  <diagram id="hvlDwTuvc3aLi-xD2Dzm" name="Page-1">
    <mxGraphModel dx="782" dy="469" grid="1" gridSize="10" guides="1" tooltips="1" connect="1" arrows="1" fold="1" page="1" pageScale="1" pageWidth="827" pageHeight="1169" math="0" shadow="0">
      <root>
        <mxCell id="0" />
        <mxCell id="1" parent="0" />
        <mxCell id="3ShS6BB2z4I8qQSdaaeM-1" value="" style="ellipse;html=1;shape=startState;fillColor=#000000;strokeColor=#ff0000;" parent="1" vertex="1">
          <mxGeometry x="340" y="40" width="30" height="30" as="geometry" />
        </mxCell>
        <mxCell id="3ShS6BB2z4I8qQSdaaeM-2" value="" style="edgeStyle=orthogonalEdgeStyle;html=1;verticalAlign=bottom;endArrow=open;endSize=8;strokeColor=#ff0000;" parent="1" source="3ShS6BB2z4I8qQSdaaeM-1" edge="1">
          <mxGeometry relative="1" as="geometry">
            <mxPoint x="355" y="130" as="targetPoint" />
          </mxGeometry>
        </mxCell>
        <mxCell id="3ShS6BB2z4I8qQSdaaeM-3" value="User Logs in" style="rounded=1;whiteSpace=wrap;html=1;arcSize=40;fontColor=#000000;fillColor=#ffffc0;strokeColor=#ff0000;" parent="1" vertex="1">
          <mxGeometry x="294" y="130" width="120" height="40" as="geometry" />
        </mxCell>
        <mxCell id="3ShS6BB2z4I8qQSdaaeM-4" value="" style="edgeStyle=orthogonalEdgeStyle;html=1;verticalAlign=bottom;endArrow=open;endSize=8;strokeColor=#ff0000;" parent="1" source="3ShS6BB2z4I8qQSdaaeM-3" edge="1">
          <mxGeometry relative="1" as="geometry">
            <mxPoint x="354" y="230" as="targetPoint" />
          </mxGeometry>
        </mxCell>
        <mxCell id="3ShS6BB2z4I8qQSdaaeM-5" value="Settings" style="rounded=1;whiteSpace=wrap;html=1;arcSize=40;fontColor=#000000;fillColor=#ffffc0;strokeColor=#ff0000;" parent="1" vertex="1">
          <mxGeometry x="295" y="230" width="120" height="40" as="geometry" />
        </mxCell>
        <mxCell id="3ShS6BB2z4I8qQSdaaeM-6" value="" style="edgeStyle=orthogonalEdgeStyle;html=1;verticalAlign=bottom;endArrow=open;endSize=8;strokeColor=#ff0000;" parent="1" source="3ShS6BB2z4I8qQSdaaeM-5" edge="1">
          <mxGeometry relative="1" as="geometry">
            <mxPoint x="355" y="330" as="targetPoint" />
          </mxGeometry>
        </mxCell>
        <mxCell id="3ShS6BB2z4I8qQSdaaeM-7" value="User changes Credentials" style="rounded=1;whiteSpace=wrap;html=1;arcSize=40;fontColor=#000000;fillColor=#ffffc0;strokeColor=#ff0000;" parent="1" vertex="1">
          <mxGeometry x="295" y="330" width="120" height="40" as="geometry" />
        </mxCell>
        <mxCell id="3ShS6BB2z4I8qQSdaaeM-8" value="" style="edgeStyle=orthogonalEdgeStyle;html=1;verticalAlign=bottom;endArrow=open;endSize=8;strokeColor=#ff0000;" parent="1" source="3ShS6BB2z4I8qQSdaaeM-7" edge="1">
          <mxGeometry relative="1" as="geometry">
            <mxPoint x="355" y="430" as="targetPoint" />
          </mxGeometry>
        </mxCell>
        <mxCell id="3ShS6BB2z4I8qQSdaaeM-9" value="" style="rhombus;whiteSpace=wrap;html=1;fillColor=#ffffc0;strokeColor=#ff0000;" parent="1" vertex="1">
          <mxGeometry x="315" y="430" width="80" height="40" as="geometry" />
        </mxCell>
        <mxCell id="3ShS6BB2z4I8qQSdaaeM-11" value="" style="edgeStyle=orthogonalEdgeStyle;html=1;align=left;verticalAlign=top;endArrow=open;endSize=8;strokeColor=#ff0000;" parent="1" source="3ShS6BB2z4I8qQSdaaeM-9" edge="1">
          <mxGeometry x="1" y="41" relative="1" as="geometry">
            <mxPoint x="355" y="530" as="targetPoint" />
            <mxPoint x="-31" y="40" as="offset" />
          </mxGeometry>
        </mxCell>
        <mxCell id="3ShS6BB2z4I8qQSdaaeM-14" value="Valid Input" style="text;html=1;align=center;verticalAlign=middle;resizable=0;points=[];autosize=1;" parent="1" vertex="1">
          <mxGeometry x="279" y="487" width="70" height="20" as="geometry" />
        </mxCell>
        <mxCell id="3ShS6BB2z4I8qQSdaaeM-16" value="" style="edgeStyle=orthogonalEdgeStyle;html=1;align=left;verticalAlign=top;endArrow=open;endSize=8;strokeColor=#ff0000;exitX=1;exitY=0.5;exitDx=0;exitDy=0;" parent="1" source="3ShS6BB2z4I8qQSdaaeM-9" target="3ShS6BB2z4I8qQSdaaeM-18" edge="1">
          <mxGeometry x="1" y="41" relative="1" as="geometry">
            <mxPoint x="490" y="410" as="targetPoint" />
            <mxPoint x="365" y="480" as="sourcePoint" />
            <mxPoint x="-31" y="40" as="offset" />
          </mxGeometry>
        </mxCell>
        <mxCell id="3ShS6BB2z4I8qQSdaaeM-17" value="Invalid Input" style="text;html=1;align=center;verticalAlign=middle;resizable=0;points=[];autosize=1;" parent="1" vertex="1">
          <mxGeometry x="395" y="420" width="80" height="20" as="geometry" />
        </mxCell>
        <mxCell id="3ShS6BB2z4I8qQSdaaeM-18" value="An&amp;nbsp; Error Message Pops Up" style="rounded=1;whiteSpace=wrap;html=1;arcSize=40;fontColor=#000000;fillColor=#ffffc0;strokeColor=#ff0000;" parent="1" vertex="1">
          <mxGeometry x="490" y="330" width="120" height="40" as="geometry" />
        </mxCell>
        <mxCell id="3ShS6BB2z4I8qQSdaaeM-19" value="" style="edgeStyle=orthogonalEdgeStyle;html=1;align=left;verticalAlign=top;endArrow=open;endSize=8;strokeColor=#ff0000;exitX=0.5;exitY=0;exitDx=0;exitDy=0;entryX=1;entryY=0.5;entryDx=0;entryDy=0;" parent="1" source="3ShS6BB2z4I8qQSdaaeM-18" target="3ShS6BB2z4I8qQSdaaeM-5" edge="1">
          <mxGeometry x="1" y="41" relative="1" as="geometry">
            <mxPoint x="550" y="250" as="targetPoint" />
            <mxPoint x="570" y="320" as="sourcePoint" />
            <mxPoint x="-31" y="40" as="offset" />
            <Array as="points">
              <mxPoint x="550" y="250" />
            </Array>
          </mxGeometry>
        </mxCell>
        <mxCell id="3ShS6BB2z4I8qQSdaaeM-20" value="Credentials are Updated" style="rounded=1;whiteSpace=wrap;html=1;arcSize=40;fontColor=#000000;fillColor=#ffffc0;strokeColor=#ff0000;" parent="1" vertex="1">
          <mxGeometry x="295" y="530" width="120" height="40" as="geometry" />
        </mxCell>
        <mxCell id="3ShS6BB2z4I8qQSdaaeM-21" value="" style="edgeStyle=orthogonalEdgeStyle;html=1;verticalAlign=bottom;endArrow=open;endSize=8;strokeColor=#ff0000;" parent="1" source="3ShS6BB2z4I8qQSdaaeM-20" edge="1">
          <mxGeometry relative="1" as="geometry">
            <mxPoint x="355" y="630" as="targetPoint" />
          </mxGeometry>
        </mxCell>
        <mxCell id="3ShS6BB2z4I8qQSdaaeM-22" value="" style="ellipse;html=1;shape=endState;fillColor=#000000;strokeColor=#ff0000;" parent="1" vertex="1">
          <mxGeometry x="339" y="630" width="30" height="30" as="geometry" />
        </mxCell>
      </root>
    </mxGraphModel>
  </diagram>
</mxfile>
